# xmcd CD database file
#
# Track frame offsets:
#	150
#	23718
#	34744
#	46925
#	61599
#	73168
#	86819
#	110034
#	133607
#	168396
#	195749
#	211142
#	224256
#	234807
#	248741
#	259767
#	275254
#	286209
#	300287
#	311355
#
# Disc length: 4332 seconds
#
# Revision: 0
# Processed by: cddbd v1.4PL0 Copyright (c) Steve Scherf et al.
# Submitted via: CDex 1.51
#
DISCID=1210ea14
DTITLE=Stan Getz - Stan Getz - The Sound - Moonlight In Vermont
DYEAR=1900
DGENRE=Jazz
TTITLE0=Budo
TTITLE1=Where Or When?
TTITLE2=Tabu
TTITLE3=Moonlight In Vermont
TTITLE4=Jaguar
TTITLE5=I Can't Get Started
TTITLE6=Potter's Luck
TTITLE7=Parker 51
TTITLE8=Long Island Sound
TTITLE9=Lover Come Back To Me
TTITLE10=Yesterdays
TTITLE11=How High The Moon
TTITLE12=Sometimes I'm Happy
TTITLE13=Stars Fell On Alabama
TTITLE14=Nice Work If You Can Get It
TTITLE15=Tenderly
TTITLE16=Lullaby Of Birdland
TTITLE17=Autumn Leaves
TTITLE18=Fools Rush In
TTITLE19=These Foolish Things
EXTD=
EXTT0=
EXTT1=
EXTT2=
EXTT3=
EXTT4=
EXTT5=
EXTT6=
EXTT7=
EXTT8=
EXTT9=
EXTT10=
EXTT11=
EXTT12=
EXTT13=
EXTT14=
EXTT15=
EXTT16=
EXTT17=
EXTT18=
EXTT19=
PLAYORDER=
